<?xml version="1.0" encoding="UTF-8" standalone="no"?>
<!-- Generator: Adobe Illustrator 19.0.0, SVG Export Plug-In . SVG Version: 6.00 Build 0)  -->

<svg
   xmlns:dc="http://purl.org/dc/elements/1.1/"
   xmlns:cc="http://creativecommons.org/ns#"
   xmlns:rdf="http://www.w3.org/1999/02/22-rdf-syntax-ns#"
   xmlns:svg="http://www.w3.org/2000/svg"
   xmlns="http://www.w3.org/2000/svg"
   xmlns:sodipodi="http://sodipodi.sourceforge.net/DTD/sodipodi-0.dtd"
   xmlns:inkscape="http://www.inkscape.org/namespaces/inkscape"
   version="1.1"
   id="Capa_1"
   x="0px"
   y="0px"
   viewBox="0 0 512.011 512.011"
   style="enable-background:new 0 0 512.011 512.011;"
   xml:space="preserve"
   sodipodi:docname="2.svg"
   inkscape:version="0.92.2 (5c3e80d, 2017-08-06)"><metadata
     id="metadata41"><rdf:RDF><cc:Work
         rdf:about=""><dc:format>image/svg+xml</dc:format><dc:type
           rdf:resource="http://purl.org/dc/dcmitype/StillImage" /><dc:title></dc:title></cc:Work></rdf:RDF></metadata><defs
     id="defs39" /><sodipodi:namedview
     pagecolor="#ffffff"
     bordercolor="#666666"
     borderopacity="1"
     objecttolerance="10"
     gridtolerance="10"
     guidetolerance="10"
     inkscape:pageopacity="0"
     inkscape:pageshadow="2"
     inkscape:window-width="1304"
     inkscape:window-height="746"
     id="namedview37"
     showgrid="false"
     inkscape:zoom="0.24568584"
     inkscape:cx="241.04074"
     inkscape:cy="261.15646"
     inkscape:window-x="54"
     inkscape:window-y="-8"
     inkscape:window-maximized="1"
     inkscape:current-layer="Capa_1" /><polygon
     style="fill:#4caf50"
     points="336,80.005 480,236.485 496,256.005 480,275.525 336,432.005 211.84,432.005 332.48,304.005 16,304.005 16,208.005 332.48,208.005 211.84,80.005 "
     id="polygon2"
     transform="matrix(0,1,1,0,0.006,0.005)" /><path
     d="m 448.0055,335.9995 v -124.16 c 0.004,-8.837 -7.157,-16.003 -15.994,-16.006 -4.083,-0.002 -8.012,1.558 -10.982,4.358 l -101.024,95.232 V 15.9995 c 0,-8.8370001 -7.163,-16.0000001235 -16,-16.0000001235 h -96 c -8.837,0 -16,7.1630000235 -16,16.0000001235 v 279.424 l -101.024,-95.232 c -6.429,-6.062 -16.556,-5.764 -22.618,0.666 -2.801,2.971 -4.36,6.9 -4.358,10.982 v 124.16 c 0.004,4.478 1.884,8.749 5.184,11.776 l 176.672,160.608 c 5.898,4.836 14.39,4.836 20.288,0 l 19.52,-16 157.152,-144.608 c 3.3,-3.027 5.18,-7.298 5.184,-11.776 z m -32,-87.104 v 80 l -160,146.336 -9.376,-7.712 -150.624,-138.528 v -80 l 101.024,95.232 c 6.429,6.062 16.556,5.764 22.618,-0.665 2.824,-2.995 4.385,-6.963 4.358,-11.079 v -300.48 h 64 v 300.48 c -0.004,8.837 7.157,16.003 15.994,16.006 4.083,0.002 8.012,-1.558 10.982,-4.358 z"
     id="path4"
     inkscape:connector-curvature="0" /><g
     id="g6" /><g
     id="g8" /><g
     id="g10" /><g
     id="g12" /><g
     id="g14" /><g
     id="g16" /><g
     id="g18" /><g
     id="g20" /><g
     id="g22" /><g
     id="g24" /><g
     id="g26" /><g
     id="g28" /><g
     id="g30" /><g
     id="g32" /><g
     id="g34" /></svg>