<?xml version="1.0" encoding="UTF-8" standalone="no"?>
<!-- Generator: Adobe Illustrator 19.0.0, SVG Export Plug-In . SVG Version: 6.00 Build 0)  -->

<svg
   xmlns:dc="http://purl.org/dc/elements/1.1/"
   xmlns:cc="http://creativecommons.org/ns#"
   xmlns:rdf="http://www.w3.org/1999/02/22-rdf-syntax-ns#"
   xmlns:svg="http://www.w3.org/2000/svg"
   xmlns="http://www.w3.org/2000/svg"
   xmlns:sodipodi="http://sodipodi.sourceforge.net/DTD/sodipodi-0.dtd"
   xmlns:inkscape="http://www.inkscape.org/namespaces/inkscape"
   version="1.1"
   id="Capa_1"
   x="0px"
   y="0px"
   viewBox="0 0 511.923 511.923"
   style="enable-background:new 0 0 511.923 511.923;"
   xml:space="preserve"
   sodipodi:docname="214.svg"
   inkscape:version="0.92.2 (5c3e80d, 2017-08-06)"><metadata
     id="metadata41"><rdf:RDF><cc:Work
         rdf:about=""><dc:format>image/svg+xml</dc:format><dc:type
           rdf:resource="http://purl.org/dc/dcmitype/StillImage" /><dc:title></dc:title></cc:Work></rdf:RDF></metadata><defs
     id="defs39" /><sodipodi:namedview
     pagecolor="#ffffff"
     bordercolor="#666666"
     borderopacity="1"
     objecttolerance="10"
     gridtolerance="10"
     guidetolerance="10"
     inkscape:pageopacity="0"
     inkscape:pageshadow="2"
     inkscape:window-width="1304"
     inkscape:window-height="746"
     id="namedview37"
     showgrid="false"
     inkscape:zoom="0.34751196"
     inkscape:cx="136.79283"
     inkscape:cy="367.28209"
     inkscape:window-x="54"
     inkscape:window-y="-8"
     inkscape:window-maximized="1"
     inkscape:current-layer="Capa_1" /><path
     style="fill:#2196f3"
     d="m 111.9627,223.924 v 48 c 0.176,97.129 78.871,175.824 176,176 h 208 v -96 h -208 c -44.183,0 -80,-35.817 -80,-80 v -48 h 96 l -144,-160 -143.999995,160 z"
     id="path2"
     inkscape:connector-curvature="0" /><path
     d="m 511.92308,447.95993 v -96 c 0,-8.837 -7.163,-16 -16,-16 H 287.92307 c -35.346,0 -64,-28.654 -64,-64 v -32 h 80 c 8.837,-0.001 15.999,-7.166 15.997,-16.003 -0.001,-3.945 -1.458,-7.75 -4.093,-10.685 l -144,-160.000005 c -5.904,-6.574 -16.02,-7.118 -22.595,-1.213 -0.426,0.382 -0.831,0.787 -1.213,1.213 L 4.0190747,213.27193 c -4.10699998,4.704 -5.164,11.342 -2.72,17.088 2.539,5.817 8.277,9.584 14.6240003,9.6 h 80 v 32 c 0.106,105.995 86.004995,191.894 191.999995,192 h 208.00001 c 8.837,0 16,-7.163 16,-16 z m -32,-80 v 64 H 287.92307 c -88.322,-0.106 -159.894,-71.678 -160,-160 v -48 c 0,-8.837 -7.163,-16 -16,-16 H 51.860075 L 159.92407,87.895925 267.98707,207.95993 h -60.064 c -8.837,0 -16,7.163 -16,16 v 48 c 0,53.019 42.981,96 96,96 z"
     id="path4"
     inkscape:connector-curvature="0" /><g
     id="g6" /><g
     id="g8" /><g
     id="g10" /><g
     id="g12" /><g
     id="g14" /><g
     id="g16" /><g
     id="g18" /><g
     id="g20" /><g
     id="g22" /><g
     id="g24" /><g
     id="g26" /><g
     id="g28" /><g
     id="g30" /><g
     id="g32" /><g
     id="g34" /></svg>