<?xml version="1.0" encoding="UTF-8" standalone="no"?>
<!-- Generator: Adobe Illustrator 19.0.0, SVG Export Plug-In . SVG Version: 6.00 Build 0)  -->

<svg
   xmlns:dc="http://purl.org/dc/elements/1.1/"
   xmlns:cc="http://creativecommons.org/ns#"
   xmlns:rdf="http://www.w3.org/1999/02/22-rdf-syntax-ns#"
   xmlns:svg="http://www.w3.org/2000/svg"
   xmlns="http://www.w3.org/2000/svg"
   xmlns:sodipodi="http://sodipodi.sourceforge.net/DTD/sodipodi-0.dtd"
   xmlns:inkscape="http://www.inkscape.org/namespaces/inkscape"
   version="1.1"
   id="Capa_1"
   x="0px"
   y="0px"
   viewBox="0 0 511.964 511.964"
   style="enable-background:new 0 0 511.964 511.964;"
   xml:space="preserve"
   sodipodi:docname="21478.svg"
   inkscape:version="0.92.2 (5c3e80d, 2017-08-06)"><metadata
     id="metadata41"><rdf:RDF><cc:Work
         rdf:about=""><dc:format>image/svg+xml</dc:format><dc:type
           rdf:resource="http://purl.org/dc/dcmitype/StillImage" /><dc:title></dc:title></cc:Work></rdf:RDF></metadata><defs
     id="defs39" /><sodipodi:namedview
     pagecolor="#ffffff"
     bordercolor="#666666"
     borderopacity="1"
     objecttolerance="10"
     gridtolerance="10"
     guidetolerance="10"
     inkscape:pageopacity="0"
     inkscape:pageshadow="2"
     inkscape:window-width="1304"
     inkscape:window-height="746"
     id="namedview37"
     showgrid="false"
     inkscape:zoom="0.49141679"
     inkscape:cx="164.51132"
     inkscape:cy="238.2718"
     inkscape:window-x="54"
     inkscape:window-y="-8"
     inkscape:window-maximized="1"
     inkscape:current-layer="Capa_1" /><path
     style="fill:#F44336;"
     d="M319.997,79.964h-16c-114.875,0-208,93.125-208,208s93.125,208,208,208h16v-96h-16  c-61.856,0-112-50.144-112-112s50.144-112,112-112h16v64l96-112l-96-112V79.964z"
     id="path2" /><path
     d="M319.997,511.964h-16c-123.712,0-224-100.288-224-224s100.288-224,224-224v-48C304.017,7.127,311.197-0.02,320.033,0  c4.647,0.01,9.061,2.041,12.092,5.564l96,112c5.121,5.988,5.121,14.812,0,20.8l-96,112c-5.764,6.698-15.866,7.456-22.564,1.692  c-3.523-3.031-5.553-7.445-5.564-12.092v-48c-53.019,0-96,42.981-96,96s42.981,96,96,96h16c8.837,0,16,7.163,16,16v96  C335.997,504.801,328.834,511.964,319.997,511.964z M303.997,95.964c-106.039,0-192,85.961-192,192s85.961,192,192,192v-64  c-70.692,0-128-57.308-128-128s57.308-128,128-128h16c8.837,0,16,7.163,16,16V196.7l58.912-68.736l-58.912-68.736v20.736  c0,8.837-7.163,16-16,16H303.997z"
     id="path4" /><g
     id="g6" /><g
     id="g8" /><g
     id="g10" /><g
     id="g12" /><g
     id="g14" /><g
     id="g16" /><g
     id="g18" /><g
     id="g20" /><g
     id="g22" /><g
     id="g24" /><g
     id="g26" /><g
     id="g28" /><g
     id="g30" /><g
     id="g32" /><g
     id="g34" /></svg>