<?xml version="1.0" encoding="UTF-8" standalone="no"?>
<!-- Generator: Adobe Illustrator 19.0.0, SVG Export Plug-In . SVG Version: 6.00 Build 0)  -->

<svg
   xmlns:dc="http://purl.org/dc/elements/1.1/"
   xmlns:cc="http://creativecommons.org/ns#"
   xmlns:rdf="http://www.w3.org/1999/02/22-rdf-syntax-ns#"
   xmlns:svg="http://www.w3.org/2000/svg"
   xmlns="http://www.w3.org/2000/svg"
   xmlns:sodipodi="http://sodipodi.sourceforge.net/DTD/sodipodi-0.dtd"
   xmlns:inkscape="http://www.inkscape.org/namespaces/inkscape"
   version="1.1"
   id="Capa_1"
   x="0px"
   y="0px"
   viewBox="0 0 511.97 511.97"
   style="enable-background:new 0 0 511.97 511.97;"
   xml:space="preserve"
   sodipodi:docname="22.svg"
   inkscape:version="0.92.2 (5c3e80d, 2017-08-06)"><metadata
     id="metadata45"><rdf:RDF><cc:Work
         rdf:about=""><dc:format>image/svg+xml</dc:format><dc:type
           rdf:resource="http://purl.org/dc/dcmitype/StillImage" /><dc:title></dc:title></cc:Work></rdf:RDF></metadata><defs
     id="defs43" /><sodipodi:namedview
     pagecolor="#ffffff"
     bordercolor="#666666"
     borderopacity="1"
     objecttolerance="10"
     gridtolerance="10"
     guidetolerance="10"
     inkscape:pageopacity="0"
     inkscape:pageshadow="2"
     inkscape:window-width="1304"
     inkscape:window-height="746"
     id="namedview41"
     showgrid="false"
     inkscape:zoom="0.49141102"
     inkscape:cx="322.3245"
     inkscape:cy="163.17546"
     inkscape:window-x="54"
     inkscape:window-y="-8"
     inkscape:window-maximized="1"
     inkscape:current-layer="Capa_1" /><g
     id="g856"
     transform="rotate(-90,255.98472,255.9845)"><polygon
       transform="matrix(-1,0,0,1,511.96944,0)"
       id="polygon2"
       points="223.985,79.985 351.985,79.985 495.985,255.985 351.985,431.985 223.985,431.985 367.985,255.985 "
       style="fill:#4caf50" /><path
       inkscape:connector-curvature="0"
       id="path4"
       d="m 159.98444,447.985 h 128 c 8.837,-0.009 15.993,-7.179 15.985,-16.015 -0.004,-3.679 -1.275,-7.245 -3.601,-10.097 l -135.712,-165.888 135.712,-165.888 c 5.585,-6.848 4.561,-16.927 -2.287,-22.511 -2.851,-2.325 -6.417,-3.597 -10.097,-3.601 h -128 c -4.802,0.005 -9.349,2.166 -12.384,5.888 l -143.9999983,176 c -4.801,5.887 -4.801,14.337 0,20.224 l 143.9999983,176 c 3.035,3.722 7.582,5.883 12.384,5.888 z m 94.24,-32 h -86.656 l -130.911998,-160 130.911998,-160 h 86.656 l -122.624,149.888 c -4.801,5.887 -4.801,14.337 0,20.224 z" /><polygon
       transform="matrix(-1,0,0,1,511.96944,0)"
       id="polygon6"
       points="15.985,79.985 143.985,79.985 287.985,255.985 143.985,431.985 15.985,431.985 159.985,255.985 "
       style="fill:#4caf50" /><path
       inkscape:connector-curvature="0"
       id="path8"
       d="m 367.98444,447.985 h 128 c 8.837,-0.009 15.993,-7.179 15.985,-16.015 -0.004,-3.679 -1.275,-7.245 -3.601,-10.097 l -135.712,-165.888 135.712,-165.888 c 5.585,-6.848 4.561,-16.927 -2.287,-22.512 -2.851,-2.325 -6.417,-3.597 -10.097,-3.601 h -128 c -4.802,0.005 -9.349,2.166 -12.384,5.888 l -144,176 c -4.801,5.887 -4.801,14.337 0,20.224 l 144,176 c 3.035,3.723 7.582,5.884 12.384,5.889 z m 94.24,-32 h -86.656 l -130.912,-160 130.912,-160 h 86.656 l -122.624,149.888 c -4.801,5.887 -4.801,14.337 0,20.224 z" /></g><g
     id="g10" /><g
     id="g12" /><g
     id="g14" /><g
     id="g16" /><g
     id="g18" /><g
     id="g20" /><g
     id="g22" /><g
     id="g24" /><g
     id="g26" /><g
     id="g28" /><g
     id="g30" /><g
     id="g32" /><g
     id="g34" /><g
     id="g36" /><g
     id="g38" /></svg>