<?xml version="1.0" encoding="UTF-8" standalone="no"?>
<!-- Generator: Adobe Illustrator 19.0.0, SVG Export Plug-In . SVG Version: 6.00 Build 0)  -->

<svg
   xmlns:dc="http://purl.org/dc/elements/1.1/"
   xmlns:cc="http://creativecommons.org/ns#"
   xmlns:rdf="http://www.w3.org/1999/02/22-rdf-syntax-ns#"
   xmlns:svg="http://www.w3.org/2000/svg"
   xmlns="http://www.w3.org/2000/svg"
   xmlns:sodipodi="http://sodipodi.sourceforge.net/DTD/sodipodi-0.dtd"
   xmlns:inkscape="http://www.inkscape.org/namespaces/inkscape"
   version="1.1"
   id="Capa_1"
   x="0px"
   y="0px"
   viewBox="0 0 512.061 512.061"
   style="enable-background:new 0 0 512.061 512.061;"
   xml:space="preserve"
   sodipodi:docname="3.svg"
   inkscape:version="0.92.2 (5c3e80d, 2017-08-06)"><metadata
     id="metadata41"><rdf:RDF><cc:Work
         rdf:about=""><dc:format>image/svg+xml</dc:format><dc:type
           rdf:resource="http://purl.org/dc/dcmitype/StillImage" /><dc:title></dc:title></cc:Work></rdf:RDF></metadata><defs
     id="defs39" /><sodipodi:namedview
     pagecolor="#ffffff"
     bordercolor="#666666"
     borderopacity="1"
     objecttolerance="10"
     gridtolerance="10"
     guidetolerance="10"
     inkscape:pageopacity="0"
     inkscape:pageshadow="2"
     inkscape:window-width="1304"
     inkscape:window-height="746"
     id="namedview37"
     showgrid="false"
     inkscape:zoom="0.34741833"
     inkscape:cx="310.39224"
     inkscape:cy="128.91171"
     inkscape:window-x="54"
     inkscape:window-y="-8"
     inkscape:window-maximized="1"
     inkscape:current-layer="Capa_1" /><polygon
     style="fill:#2196f3"
     points="323.2,63.949 496,255.949 323.2,447.949 251.84,383.949 323.52,303.949 16,303.949 16,207.949 323.52,207.949 251.84,127.949 "
     id="polygon2"
     transform="matrix(0.70710678,0.70710678,0.70710678,-0.70710678,-106.05155,276.39308)" /><path
     d="m 450.54685,176.86851 c -2.79095,-2.78954 -6.51316,-4.44982 -10.45387,-4.66125 l -95.71397,-5.2043 c -8.72075,-0.39811 -16.15103,6.26708 -16.69904,14.97935 L 323.62966,253.59808 131.50027,61.468683 c -6.24871,-6.2487 -16.37872,-6.2487 -22.62742,0 L 40.990599,129.35093 c -6.248703,6.24871 -6.248703,16.37872 0,22.62742 L 233.12,344.10775 l -71.45739,3.98242 c -8.71226,0.54801 -15.37745,7.97829 -14.97935,16.69904 l 5.20431,95.71398 c 0.47588,8.82257 8.01293,15.58887 16.8348,15.11511 l 257.95255,-13.57645 c 8.1586,-0.43982 14.6753,-6.95652 15.11512,-15.11512 l 13.57645,-257.95255 c 0.18314,-4.53609 -1.56837,-8.93642 -4.81964,-12.10567 z m -91.9352,22.96683 63.78669,3.46199 -11.9699,227.60919 -227.60919,11.96991 -3.462,-63.78669 91.279,-5.02329 c 8.82258,-0.49993 15.56908,-8.05678 15.06986,-16.87864 -0.22132,-3.91384 -1.87242,-7.60988 -4.63862,-10.3874 L 74.931724,140.66464 120.18656,95.409813 326.32233,301.54558 c 6.26072,6.23668 16.39144,6.21617 22.62741,-0.0438 2.76621,-2.77752 4.4173,-6.47357 4.63862,-10.3874 z"
     id="path4"
     inkscape:connector-curvature="0" /><g
     id="g6" /><g
     id="g8" /><g
     id="g10" /><g
     id="g12" /><g
     id="g14" /><g
     id="g16" /><g
     id="g18" /><g
     id="g20" /><g
     id="g22" /><g
     id="g24" /><g
     id="g26" /><g
     id="g28" /><g
     id="g30" /><g
     id="g32" /><g
     id="g34" /></svg>