<?xml version="1.0" encoding="UTF-8" standalone="no"?>
<!-- Generator: Adobe Illustrator 19.0.0, SVG Export Plug-In . SVG Version: 6.00 Build 0)  -->

<svg
   xmlns:dc="http://purl.org/dc/elements/1.1/"
   xmlns:cc="http://creativecommons.org/ns#"
   xmlns:rdf="http://www.w3.org/1999/02/22-rdf-syntax-ns#"
   xmlns:svg="http://www.w3.org/2000/svg"
   xmlns="http://www.w3.org/2000/svg"
   xmlns:sodipodi="http://sodipodi.sourceforge.net/DTD/sodipodi-0.dtd"
   xmlns:inkscape="http://www.inkscape.org/namespaces/inkscape"
   version="1.1"
   id="Capa_1"
   x="0px"
   y="0px"
   viewBox="0 0 512.011 512.011"
   style="enable-background:new 0 0 512.011 512.011;"
   xml:space="preserve"
   sodipodi:docname="3.svg"
   inkscape:version="0.92.2 (5c3e80d, 2017-08-06)"><metadata
     id="metadata41"><rdf:RDF><cc:Work
         rdf:about=""><dc:format>image/svg+xml</dc:format><dc:type
           rdf:resource="http://purl.org/dc/dcmitype/StillImage" /><dc:title></dc:title></cc:Work></rdf:RDF></metadata><defs
     id="defs39" /><sodipodi:namedview
     pagecolor="#ffffff"
     bordercolor="#666666"
     borderopacity="1"
     objecttolerance="10"
     gridtolerance="10"
     guidetolerance="10"
     inkscape:pageopacity="0"
     inkscape:pageshadow="2"
     inkscape:window-width="1304"
     inkscape:window-height="746"
     id="namedview37"
     showgrid="false"
     inkscape:zoom="0.24568584"
     inkscape:cx="241.04074"
     inkscape:cy="261.15646"
     inkscape:window-x="54"
     inkscape:window-y="-8"
     inkscape:window-maximized="1"
     inkscape:current-layer="Capa_1" /><polygon
     style="fill:#4caf50"
     points="211.84,80.005 336,80.005 480,236.485 496,256.005 480,275.525 336,432.005 211.84,432.005 332.48,304.005 16,304.005 16,208.005 332.48,208.005 "
     id="polygon2"
     transform="matrix(-1,0,0,1,512.011,0)" /><path
     d="m 176.011,448.005 h 124.16 c 8.837,0.004 16.003,-7.157 16.006,-15.994 0.002,-4.083 -1.558,-8.012 -4.358,-10.982 L 216.587,320.005 h 279.424 c 8.837,0 16,-7.163 16,-16 v -96 c 0,-8.837 -7.163,-16 -16,-16 H 216.587 L 311.819,90.981 c 6.062,-6.429 5.764,-16.556 -0.666,-22.618 -2.971,-2.801 -6.9,-4.36 -10.982,-4.358 h -124.16 c -4.478,0.004 -8.749,1.884 -11.776,5.184 L 3.627,245.861 c -4.836,5.898 -4.836,14.39 0,20.288 l 16,19.52 144.608,157.152 c 3.027,3.3 7.298,5.18 11.776,5.184 z m 87.104,-32 h -80 l -146.336,-160 7.712,-9.376 138.528,-150.624 h 80 l -95.232,101.024 c -6.062,6.429 -5.764,16.556 0.665,22.618 2.995,2.824 6.963,4.385 11.079,4.358 h 300.48 v 64 h -300.48 c -8.837,-0.004 -16.003,7.157 -16.006,15.994 -0.002,4.083 1.558,8.012 4.358,10.982 z"
     id="path4"
     inkscape:connector-curvature="0" /><g
     id="g6" /><g
     id="g8" /><g
     id="g10" /><g
     id="g12" /><g
     id="g14" /><g
     id="g16" /><g
     id="g18" /><g
     id="g20" /><g
     id="g22" /><g
     id="g24" /><g
     id="g26" /><g
     id="g28" /><g
     id="g30" /><g
     id="g32" /><g
     id="g34" /></svg>