<?xml version="1.0" encoding="UTF-8" standalone="no"?>
<!-- Generator: Adobe Illustrator 19.0.0, SVG Export Plug-In . SVG Version: 6.00 Build 0)  -->

<svg
   xmlns:dc="http://purl.org/dc/elements/1.1/"
   xmlns:cc="http://creativecommons.org/ns#"
   xmlns:rdf="http://www.w3.org/1999/02/22-rdf-syntax-ns#"
   xmlns:svg="http://www.w3.org/2000/svg"
   xmlns="http://www.w3.org/2000/svg"
   xmlns:sodipodi="http://sodipodi.sourceforge.net/DTD/sodipodi-0.dtd"
   xmlns:inkscape="http://www.inkscape.org/namespaces/inkscape"
   version="1.1"
   id="Capa_1"
   x="0px"
   y="0px"
   viewBox="0 0 511.982 511.982"
   style="enable-background:new 0 0 511.982 511.982;"
   xml:space="preserve"
   sodipodi:docname="412.svg"
   inkscape:version="0.92.2 (5c3e80d, 2017-08-06)"><metadata
     id="metadata41"><rdf:RDF><cc:Work
         rdf:about=""><dc:format>image/svg+xml</dc:format><dc:type
           rdf:resource="http://purl.org/dc/dcmitype/StillImage" /><dc:title></dc:title></cc:Work></rdf:RDF></metadata><defs
     id="defs39" /><sodipodi:namedview
     pagecolor="#ffffff"
     bordercolor="#666666"
     borderopacity="1"
     objecttolerance="10"
     gridtolerance="10"
     guidetolerance="10"
     inkscape:pageopacity="0"
     inkscape:pageshadow="2"
     inkscape:window-width="1304"
     inkscape:window-height="746"
     id="namedview37"
     showgrid="false"
     inkscape:zoom="0.34747192"
     inkscape:cx="-5.8286776"
     inkscape:cy="437.9505"
     inkscape:window-x="54"
     inkscape:window-y="-8"
     inkscape:window-maximized="1"
     inkscape:current-layer="Capa_1" /><path
     style="fill:#f44336"
     d="M 368,415.99899 H 352 C 166.52,415.78699 16.212,265.47899 16,79.998992 v -48 h 96 v 48 C 112,212.54699 219.452,319.99899 352,319.99899 h 16 v -64 l 128,112 -128,112 z"
     id="path2"
     inkscape:connector-curvature="0" /><path
     d="M 112,15.998992 H 16 c -8.837,0 -16,7.163 -16,16 v 48 C 0.229,274.30799 157.691,431.76999 352,431.99899 v 48 c 0.009,8.837 7.18,15.993 16.016,15.984 3.866,-0.004 7.6,-1.408 10.512,-3.952 l 128,-112 c 6.645,-5.825 7.31,-15.934 1.485,-22.579 -0.462,-0.527 -0.958,-1.023 -1.485,-1.485 l -128,-112 c -6.654,-5.814 -16.762,-5.134 -22.576,1.52 -2.544,2.911 -3.948,6.645 -3.952,10.512 v 48 C 228.347,303.85799 128.141,203.65199 128,79.998992 v -48 c 0,-8.836 -7.163,-16 -16,-16 z m -80,32 h 64 v 32 C 96.159,221.31799 210.681,335.83999 352,335.99899 h 16 c 8.837,0 16,-7.163 16,-16 v -28.8 l 87.68,76.8 -87.68,76.8 v -28.8 c 0,-8.837 -7.163,-16 -16,-16 H 352 C 175.349,399.80499 32.194,256.64999 32,79.998992 Z"
     id="path4"
     inkscape:connector-curvature="0" /><g
     id="g6" /><g
     id="g8" /><g
     id="g10" /><g
     id="g12" /><g
     id="g14" /><g
     id="g16" /><g
     id="g18" /><g
     id="g20" /><g
     id="g22" /><g
     id="g24" /><g
     id="g26" /><g
     id="g28" /><g
     id="g30" /><g
     id="g32" /><g
     id="g34" /></svg>