<?xml version="1.0" encoding="UTF-8" standalone="no"?>
<!-- Generator: Adobe Illustrator 19.0.0, SVG Export Plug-In . SVG Version: 6.00 Build 0)  -->

<svg
   xmlns:dc="http://purl.org/dc/elements/1.1/"
   xmlns:cc="http://creativecommons.org/ns#"
   xmlns:rdf="http://www.w3.org/1999/02/22-rdf-syntax-ns#"
   xmlns:svg="http://www.w3.org/2000/svg"
   xmlns="http://www.w3.org/2000/svg"
   xmlns:sodipodi="http://sodipodi.sourceforge.net/DTD/sodipodi-0.dtd"
   xmlns:inkscape="http://www.inkscape.org/namespaces/inkscape"
   version="1.1"
   id="Capa_1"
   x="0px"
   y="0px"
   viewBox="0 0 512.011 512.011"
   style="enable-background:new 0 0 512.011 512.011;"
   xml:space="preserve"
   sodipodi:docname="6.svg"
   inkscape:version="0.92.2 (5c3e80d, 2017-08-06)"><metadata
     id="metadata41"><rdf:RDF><cc:Work
         rdf:about=""><dc:format>image/svg+xml</dc:format><dc:type
           rdf:resource="http://purl.org/dc/dcmitype/StillImage" /><dc:title></dc:title></cc:Work></rdf:RDF></metadata><defs
     id="defs39" /><sodipodi:namedview
     pagecolor="#ffffff"
     bordercolor="#666666"
     borderopacity="1"
     objecttolerance="10"
     gridtolerance="10"
     guidetolerance="10"
     inkscape:pageopacity="0"
     inkscape:pageshadow="2"
     inkscape:window-width="1304"
     inkscape:window-height="746"
     id="namedview37"
     showgrid="false"
     inkscape:zoom="0.24568584"
     inkscape:cx="241.04074"
     inkscape:cy="261.15646"
     inkscape:window-x="54"
     inkscape:window-y="-8"
     inkscape:window-maximized="1"
     inkscape:current-layer="Capa_1" /><polygon
     style="fill:#4CAF50;"
     points="332.48,208.005 211.84,80.005 336,80.005 480,236.485 496,256.005 480,275.525 336,432.005   211.84,432.005 332.48,304.005 16,304.005 16,208.005 "
     id="polygon2" /><path
     d="M336,448.005H211.84c-8.837,0.004-16.003-7.157-16.006-15.994c-0.002-4.083,1.558-8.012,4.358-10.982l95.232-101.024H16  c-8.837,0-16-7.163-16-16v-96c0-8.837,7.163-16,16-16h279.424L200.192,90.981c-6.062-6.429-5.764-16.556,0.666-22.618  c2.971-2.801,6.9-4.36,10.982-4.358H336c4.478,0.004,8.749,1.884,11.776,5.184l160.608,176.672c4.836,5.898,4.836,14.39,0,20.288  l-16,19.52L347.776,442.821C344.749,446.121,340.478,448.001,336,448.005z M248.896,416.005h80l146.336-160l-7.712-9.376  L328.992,96.005h-80l95.232,101.024c6.062,6.429,5.764,16.556-0.665,22.618c-2.995,2.824-6.963,4.385-11.079,4.358H32v64h300.48  c8.837-0.004,16.003,7.157,16.006,15.994c0.002,4.083-1.558,8.012-4.358,10.982L248.896,416.005z"
     id="path4" /><g
     id="g6" /><g
     id="g8" /><g
     id="g10" /><g
     id="g12" /><g
     id="g14" /><g
     id="g16" /><g
     id="g18" /><g
     id="g20" /><g
     id="g22" /><g
     id="g24" /><g
     id="g26" /><g
     id="g28" /><g
     id="g30" /><g
     id="g32" /><g
     id="g34" /></svg>