<?xml version="1.0" encoding="UTF-8" standalone="no"?>
<!-- Generator: Adobe Illustrator 19.0.0, SVG Export Plug-In . SVG Version: 6.00 Build 0)  -->

<svg
   xmlns:dc="http://purl.org/dc/elements/1.1/"
   xmlns:cc="http://creativecommons.org/ns#"
   xmlns:rdf="http://www.w3.org/1999/02/22-rdf-syntax-ns#"
   xmlns:svg="http://www.w3.org/2000/svg"
   xmlns="http://www.w3.org/2000/svg"
   xmlns:sodipodi="http://sodipodi.sourceforge.net/DTD/sodipodi-0.dtd"
   xmlns:inkscape="http://www.inkscape.org/namespaces/inkscape"
   version="1.1"
   id="Capa_1"
   x="0px"
   y="0px"
   viewBox="0 0 511.982 511.982"
   style="enable-background:new 0 0 511.982 511.982;"
   xml:space="preserve"
   sodipodi:docname="632.svg"
   inkscape:version="0.92.2 (5c3e80d, 2017-08-06)"><metadata
     id="metadata41"><rdf:RDF><cc:Work
         rdf:about=""><dc:format>image/svg+xml</dc:format><dc:type
           rdf:resource="http://purl.org/dc/dcmitype/StillImage" /><dc:title></dc:title></cc:Work></rdf:RDF></metadata><defs
     id="defs39" /><sodipodi:namedview
     pagecolor="#ffffff"
     bordercolor="#666666"
     borderopacity="1"
     objecttolerance="10"
     gridtolerance="10"
     guidetolerance="10"
     inkscape:pageopacity="0"
     inkscape:pageshadow="2"
     inkscape:window-width="1304"
     inkscape:window-height="746"
     id="namedview37"
     showgrid="false"
     inkscape:zoom="0.34747192"
     inkscape:cx="-5.8286776"
     inkscape:cy="437.9505"
     inkscape:window-x="54"
     inkscape:window-y="-8"
     inkscape:window-maximized="1"
     inkscape:current-layer="Capa_1" /><path
     style="fill:#f44336"
     d="m 143.98146,415.99899 h 16 c 185.48,-0.212 335.788,-150.52 336,-335.999998 v -48 h -96 v 48 c 0,132.547998 -107.452,239.999998 -240,239.999998 h -16 v -64 l -127.999999,112 127.999999,112 z"
     id="path2"
     inkscape:connector-curvature="0" /><path
     d="m 399.98146,15.998992 h 96 c 8.837,0 16,7.163 16,16 v 48 c -0.229,194.308998 -157.691,351.770998 -352,351.999998 v 48 c -0.009,8.837 -7.18,15.993 -16.016,15.984 -3.866,-0.004 -7.6,-1.408 -10.512,-3.952 l -127.9999986,-112 c -6.645,-5.825 -7.31,-15.934 -1.485,-22.579 0.462,-0.527 0.958,-1.023 1.485,-1.485 l 127.9999986,-112 c 6.654,-5.814 16.762,-5.134 22.576,1.52 2.544,2.911 3.948,6.645 3.952,10.512 v 48 c 123.653,-0.141 223.859,-100.347 224,-223.999998 v -48 c 0,-8.836 7.163,-16 16,-16 z m 80,32 h -64 v 32 c -0.159,141.318998 -114.681,255.840998 -256,255.999998 h -16 c -8.837,0 -16,-7.163 -16,-16 v -28.8 l -87.679999,76.8 87.679999,76.8 v -28.8 c 0,-8.837 7.163,-16 16,-16 h 16 c 176.651,-0.194 319.806,-143.349 320,-319.999998 z"
     id="path4"
     inkscape:connector-curvature="0" /><g
     id="g6" /><g
     id="g8" /><g
     id="g10" /><g
     id="g12" /><g
     id="g14" /><g
     id="g16" /><g
     id="g18" /><g
     id="g20" /><g
     id="g22" /><g
     id="g24" /><g
     id="g26" /><g
     id="g28" /><g
     id="g30" /><g
     id="g32" /><g
     id="g34" /></svg>