<?xml version="1.0" encoding="UTF-8" standalone="no"?>
<!-- Generator: Adobe Illustrator 19.0.0, SVG Export Plug-In . SVG Version: 6.00 Build 0)  -->

<svg
   xmlns:dc="http://purl.org/dc/elements/1.1/"
   xmlns:cc="http://creativecommons.org/ns#"
   xmlns:rdf="http://www.w3.org/1999/02/22-rdf-syntax-ns#"
   xmlns:svg="http://www.w3.org/2000/svg"
   xmlns="http://www.w3.org/2000/svg"
   xmlns:sodipodi="http://sodipodi.sourceforge.net/DTD/sodipodi-0.dtd"
   xmlns:inkscape="http://www.inkscape.org/namespaces/inkscape"
   version="1.1"
   id="Capa_1"
   x="0px"
   y="0px"
   viewBox="0 0 512.029 512.029"
   style="enable-background:new 0 0 512.029 512.029;"
   xml:space="preserve"
   sodipodi:docname="63214.svg"
   inkscape:version="0.92.2 (5c3e80d, 2017-08-06)"><metadata
     id="metadata41"><rdf:RDF><cc:Work
         rdf:about=""><dc:format>image/svg+xml</dc:format><dc:type
           rdf:resource="http://purl.org/dc/dcmitype/StillImage" /><dc:title></dc:title></cc:Work></rdf:RDF></metadata><defs
     id="defs39" /><sodipodi:namedview
     pagecolor="#ffffff"
     bordercolor="#666666"
     borderopacity="1"
     objecttolerance="10"
     gridtolerance="10"
     guidetolerance="10"
     inkscape:pageopacity="0"
     inkscape:pageshadow="2"
     inkscape:window-width="1304"
     inkscape:window-height="746"
     id="namedview37"
     showgrid="false"
     inkscape:zoom="0.34744003"
     inkscape:cx="528.43534"
     inkscape:cy="241.49464"
     inkscape:window-x="54"
     inkscape:window-y="-8"
     inkscape:window-maximized="1"
     inkscape:current-layer="Capa_1" /><path
     style="fill:#ffc107"
     d="m 127.9997,176.028 v 144 c 0,97.202 78.798,176 176,176 97.202,0 176,-78.798 176,-176 v -144 h -96 v 144 c 0,44.183 -35.817,80 -80,80 -44.183,0 -80,-35.817 -80,-80 v -144 h 96 l -144,-160 -143.999998,160 z"
     id="path2"
     inkscape:connector-curvature="0" /><path
     d="m 496.02759,320.02941 v -144 c 0,-8.837 -7.163,-16 -16,-16 h -96 c -8.837,0 -16,7.163 -16,16 v 144 c 0,35.346 -28.654,64 -64,64 -35.346,0 -64,-28.654 -64,-64 v -128 h 80 c 8.837,0.014 16.012,-7.137 16.026,-15.974 0.007,-3.969 -1.463,-7.8 -4.122,-10.746 l -144,-160.0000029 c -5.904,-6.574 -16.02,-7.118 -22.595,-1.213 -0.426,0.382 -0.831,0.787 -1.213,1.213 L 20.123592,165.30941 c -5.921,6.56 -5.402,16.677 1.158,22.598 2.947,2.66 6.777,4.129 10.746,4.122 h 79.999998 v 128 c 0,106.039 85.961,192 192,192 106.039,0 192,-85.961 192,-192 z m -32,-128 v 128 c 0,88.366 -71.634,160 -160,160 -88.366,0 -160,-71.634 -160,-160 v -144 c 0,-8.837 -7.163,-16 -16,-16 H 67.963592 L 176.02759,39.933407 284.09159,160.02941 h -60.064 c -8.837,0 -16,7.163 -16,16 v 144 c 0,53.019 42.981,96 96,96 53.019,0 96,-42.981 96,-96 v -128 z"
     id="path4"
     inkscape:connector-curvature="0" /><g
     id="g6" /><g
     id="g8" /><g
     id="g10" /><g
     id="g12" /><g
     id="g14" /><g
     id="g16" /><g
     id="g18" /><g
     id="g20" /><g
     id="g22" /><g
     id="g24" /><g
     id="g26" /><g
     id="g28" /><g
     id="g30" /><g
     id="g32" /><g
     id="g34" /></svg>