<?xml version="1.0" encoding="UTF-8" standalone="no"?>
<!-- Generator: Adobe Illustrator 19.0.0, SVG Export Plug-In . SVG Version: 6.00 Build 0)  -->

<svg
   xmlns:dc="http://purl.org/dc/elements/1.1/"
   xmlns:cc="http://creativecommons.org/ns#"
   xmlns:rdf="http://www.w3.org/1999/02/22-rdf-syntax-ns#"
   xmlns:svg="http://www.w3.org/2000/svg"
   xmlns="http://www.w3.org/2000/svg"
   xmlns:sodipodi="http://sodipodi.sourceforge.net/DTD/sodipodi-0.dtd"
   xmlns:inkscape="http://www.inkscape.org/namespaces/inkscape"
   version="1.1"
   id="Capa_1"
   x="0px"
   y="0px"
   viewBox="0 0 511.97 511.97"
   style="enable-background:new 0 0 511.97 511.97;"
   xml:space="preserve"
   sodipodi:docname="66.svg"
   inkscape:version="0.92.2 (5c3e80d, 2017-08-06)"><metadata
     id="metadata45"><rdf:RDF><cc:Work
         rdf:about=""><dc:format>image/svg+xml</dc:format><dc:type
           rdf:resource="http://purl.org/dc/dcmitype/StillImage" /><dc:title></dc:title></cc:Work></rdf:RDF></metadata><defs
     id="defs43" /><sodipodi:namedview
     pagecolor="#ffffff"
     bordercolor="#666666"
     borderopacity="1"
     objecttolerance="10"
     gridtolerance="10"
     guidetolerance="10"
     inkscape:pageopacity="0"
     inkscape:pageshadow="2"
     inkscape:window-width="1304"
     inkscape:window-height="746"
     id="namedview41"
     showgrid="false"
     inkscape:zoom="0.49141102"
     inkscape:cx="66.455176"
     inkscape:cy="163.17546"
     inkscape:window-x="54"
     inkscape:window-y="-8"
     inkscape:window-maximized="1"
     inkscape:current-layer="Capa_1" /><polygon
     style="fill:#4CAF50;"
     points="223.985,431.985 367.985,255.985 223.985,79.985 351.985,79.985 495.985,255.985   351.985,431.985 "
     id="polygon2" /><path
     d="M351.985,447.985h-128c-8.837-0.009-15.993-7.179-15.985-16.015c0.004-3.679,1.275-7.245,3.601-10.097l135.712-165.888  L211.601,90.097c-5.585-6.848-4.561-16.927,2.287-22.511c2.851-2.325,6.417-3.597,10.097-3.601h128  c4.802,0.005,9.349,2.166,12.384,5.888l144,176c4.801,5.887,4.801,14.337,0,20.224l-144,176  C361.334,445.819,356.787,447.98,351.985,447.985z M257.745,415.985h86.656l130.912-160l-130.912-160h-86.656l122.624,149.888  c4.801,5.887,4.801,14.337,0,20.224L257.745,415.985z"
     id="path4" /><polygon
     style="fill:#4CAF50;"
     points="15.985,431.985 159.985,255.985 15.985,79.985 143.985,79.985 287.985,255.985   143.985,431.985 "
     id="polygon6" /><path
     d="M143.985,447.985h-128c-8.837-0.009-15.993-7.179-15.985-16.015c0.004-3.679,1.275-7.245,3.601-10.097l135.712-165.888  L3.601,90.097C-1.984,83.249-0.96,73.17,5.888,67.585c2.851-2.325,6.417-3.597,10.097-3.601h128  c4.802,0.005,9.349,2.166,12.384,5.888l144,176c4.801,5.887,4.801,14.337,0,20.224l-144,176  C153.334,445.819,148.787,447.98,143.985,447.985z M49.745,415.985h86.656l130.912-160l-130.912-160H49.745l122.624,149.888  c4.801,5.887,4.801,14.337,0,20.224L49.745,415.985z"
     id="path8" /><g
     id="g10" /><g
     id="g12" /><g
     id="g14" /><g
     id="g16" /><g
     id="g18" /><g
     id="g20" /><g
     id="g22" /><g
     id="g24" /><g
     id="g26" /><g
     id="g28" /><g
     id="g30" /><g
     id="g32" /><g
     id="g34" /><g
     id="g36" /><g
     id="g38" /></svg>