<?xml version="1.0" encoding="UTF-8" standalone="no"?>
<!-- Generator: Adobe Illustrator 19.0.0, SVG Export Plug-In . SVG Version: 6.00 Build 0)  -->

<svg
   xmlns:dc="http://purl.org/dc/elements/1.1/"
   xmlns:cc="http://creativecommons.org/ns#"
   xmlns:rdf="http://www.w3.org/1999/02/22-rdf-syntax-ns#"
   xmlns:svg="http://www.w3.org/2000/svg"
   xmlns="http://www.w3.org/2000/svg"
   xmlns:sodipodi="http://sodipodi.sourceforge.net/DTD/sodipodi-0.dtd"
   xmlns:inkscape="http://www.inkscape.org/namespaces/inkscape"
   version="1.1"
   id="Capa_1"
   x="0px"
   y="0px"
   viewBox="0 0 512.107 512.107"
   style="enable-background:new 0 0 512.107 512.107;"
   xml:space="preserve"
   sodipodi:docname="N.svg"
   inkscape:version="0.92.2 (5c3e80d, 2017-08-06)"><metadata
     id="metadata53"><rdf:RDF><cc:Work
         rdf:about=""><dc:format>image/svg+xml</dc:format><dc:type
           rdf:resource="http://purl.org/dc/dcmitype/StillImage" /><dc:title></dc:title></cc:Work></rdf:RDF></metadata><defs
     id="defs51" /><sodipodi:namedview
     pagecolor="#ffffff"
     bordercolor="#666666"
     borderopacity="1"
     objecttolerance="10"
     gridtolerance="10"
     guidetolerance="10"
     inkscape:pageopacity="0"
     inkscape:pageshadow="2"
     inkscape:window-width="1304"
     inkscape:window-height="746"
     id="namedview49"
     showgrid="false"
     inkscape:zoom="0.34738711"
     inkscape:cx="699.77644"
     inkscape:cy="116.01607"
     inkscape:window-x="54"
     inkscape:window-y="-8"
     inkscape:window-maximized="1"
     inkscape:current-layer="Capa_1" /><polygon
     style="fill:#4CAF50;"
     points="352.014,32.076 288.014,32.076 288.014,224.076 480.014,224.076 480.014,160.076   397.454,160.076 496.014,64.076 448.014,16.076 352.014,114.636 "
     id="polygon2" /><path
     d="M480.014,240.076h-192c-8.837,0-16-7.163-16-16v-192c0-8.837,7.163-16,16-16h64c8.837,0,16,7.163,16,16v43.2l68.544-70.4  c2.809-3.37,7.084-5.161,11.456-4.8c4.243,0.01,8.312,1.688,11.328,4.672l48,48c6.292,6.205,6.362,16.335,0.157,22.627  c-0.052,0.053-0.104,0.105-0.157,0.157l-70.528,68.544h43.2c8.837,0,16,7.163,16,16v64  C496.014,232.913,488.85,240.076,480.014,240.076z M304.014,208.076h160v-32h-66.56c-8.837-0.001-15.999-7.165-15.998-16.002  c0-4.313,1.742-8.443,4.83-11.454l86.944-84.544L448.174,39.02l-84.704,86.784c-6.169,6.327-16.299,6.455-22.626,0.286  c-3.088-3.011-4.83-7.141-4.83-11.454v-66.56h-32V208.076z"
     id="path4" /><polygon
     style="fill:#4CAF50;"
     points="160.014,114.636 64.014,16.076 16.014,64.076 114.574,160.076 32.014,160.076   32.014,224.076 224.014,224.076 224.014,32.076 160.014,32.076 "
     id="polygon6" /><path
     d="M224.014,240.076h-192c-8.837,0-16-7.163-16-16v-64c0-8.837,7.163-16,16-16h43.2L4.846,75.532  c-6.335-6.16-6.477-16.29-0.317-22.625c0.052-0.053,0.104-0.106,0.157-0.159l48-48c3.016-2.984,7.085-4.662,11.328-4.672  c4.314,0,8.445,1.743,11.456,4.832l68.544,70.368v-43.2c0-8.837,7.163-16,16-16h64c8.837,0,16,7.163,16,16v192  C240.014,232.913,232.85,240.076,224.014,240.076z M48.014,208.076h160v-160h-32v66.56c-0.001,8.837-7.165,15.999-16.002,15.998  c-4.313,0-8.443-1.742-11.454-4.83L64.014,38.86L38.798,64.076l86.944,84.544c6.327,6.169,6.455,16.299,0.286,22.626  c-3.011,3.088-7.141,4.83-11.454,4.83h-66.56V208.076z"
     id="path8" /><polygon
     style="fill:#4CAF50;"
     points="352.014,397.516 448.014,496.076 496.014,448.076 397.454,352.076 480.014,352.076   480.014,288.076 288.014,288.076 288.014,480.076 352.014,480.076 "
     id="polygon10" /><path
     d="M448.014,512.076c-4.218-0.421-8.211-2.105-11.456-4.832l-68.544-70.4v43.232c0,8.837-7.163,16-16,16h-64  c-8.837,0-16-7.163-16-16v-192c0-8.837,7.163-16,16-16h192c8.837,0,16,7.163,16,16v64c0,8.837-7.163,16-16,16h-43.2l70.4,68.544  c6.292,6.205,6.362,16.335,0.157,22.627c-0.052,0.053-0.104,0.105-0.157,0.157l-48,48  C456.229,510.357,452.212,512.033,448.014,512.076z M352.014,381.516c4.314,0,8.445,1.743,11.456,4.832l84.704,86.944l25.056-25.056  l-86.944-84.704c-6.327-6.169-6.455-16.299-0.286-22.626c3.011-3.088,7.141-4.83,11.454-4.83h66.56v-32h-160v160h32v-66.56  C336.014,388.68,343.177,381.516,352.014,381.516z"
     id="path12" /><polygon
     style="fill:#4CAF50;"
     points="160.014,480.076 224.014,480.076 224.014,288.076 32.014,288.076 32.014,352.076   114.574,352.076 16.014,448.076 64.014,496.076 160.014,397.516 "
     id="polygon14" /><path
     d="M64.014,512.076c-4.243-0.01-8.312-1.688-11.328-4.672l-48-48c-6.248-6.249-6.248-16.379,0.001-22.627  c0.053-0.053,0.105-0.105,0.159-0.157l70.368-68.544h-43.2c-8.837,0-16-7.163-16-16v-64c0-8.837,7.163-16,16-16h192  c8.837,0,16,7.163,16,16v192c0,8.837-7.163,16-16,16h-64c-8.837,0-16-7.163-16-16v-43.232l-68.544,70.4  C72.459,510.333,68.328,512.076,64.014,512.076z M38.798,448.236l25.216,25.056l84.704-86.944  c6.169-6.327,16.299-6.455,22.626-0.286c3.088,3.011,4.83,7.141,4.83,11.454v66.56h32v-160h-160v32h66.4  c8.837,0.001,15.999,7.165,15.998,16.002c0,4.313-1.742,8.443-4.83,11.454L38.798,448.236z"
     id="path16" /><g
     id="g18" /><g
     id="g20" /><g
     id="g22" /><g
     id="g24" /><g
     id="g26" /><g
     id="g28" /><g
     id="g30" /><g
     id="g32" /><g
     id="g34" /><g
     id="g36" /><g
     id="g38" /><g
     id="g40" /><g
     id="g42" /><g
     id="g44" /><g
     id="g46" /></svg>